<svg width="56" height="56" viewBox="0 0 56 56" fill="none" xmlns="http://www.w3.org/2000/svg">
<path d="M9.33333 51.3333C8.67222 51.3333 8.11806 51.1097 7.67083 50.6625C7.22361 50.2153 7 49.6611 7 49V37.3333C7 36.05 7.45694 34.9514 8.37083 34.0375C9.28472 33.1236 10.3833 32.6667 11.6667 32.6667V23.3333C11.6667 22.05 12.1236 20.9514 13.0375 20.0375C13.9514 19.1236 15.05 18.6667 16.3333 18.6667H25.6667V15.2833C24.9667 14.8167 24.4028 14.2528 23.975 13.5917C23.5472 12.9306 23.3333 12.1333 23.3333 11.2C23.3333 10.6167 23.45 10.0431 23.6833 9.47917C23.9167 8.91528 24.2667 8.40001 24.7333 7.93334L28 4.66667L31.2667 7.93334C31.7333 8.40001 32.0833 8.91528 32.3167 9.47917C32.55 10.0431 32.6667 10.6167 32.6667 11.2C32.6667 12.1333 32.4528 12.9306 32.025 13.5917C31.5972 14.2528 31.0333 14.8167 30.3333 15.2833V18.6667H39.6667C40.95 18.6667 42.0486 19.1236 42.9625 20.0375C43.8764 20.9514 44.3333 22.05 44.3333 23.3333V32.6667C45.6167 32.6667 46.7153 33.1236 47.6292 34.0375C48.5431 34.9514 49 36.05 49 37.3333V49C49 49.6611 48.7764 50.2153 48.3292 50.6625C47.8819 51.1097 47.3278 51.3333 46.6667 51.3333H9.33333ZM16.3333 32.6667H39.6667V23.3333H16.3333V32.6667ZM11.6667 46.6667H44.3333V37.3333H11.6667V46.6667Z" fill="#D05353"/>
</svg>
