<svg width="56" height="56" viewBox="0 0 56 56" fill="none" xmlns="http://www.w3.org/2000/svg">
<path d="M27.9999 28C29.2833 28 30.3819 27.5431 31.2958 26.6292C32.2096 25.7153 32.6666 24.6167 32.6666 23.3333C32.6666 22.05 32.2096 20.9514 31.2958 20.0375C30.3819 19.1236 29.2833 18.6667 27.9999 18.6667C26.7166 18.6667 25.618 19.1236 24.7041 20.0375C23.7902 20.9514 23.3333 22.05 23.3333 23.3333C23.3333 24.6167 23.7902 25.7153 24.7041 26.6292C25.618 27.5431 26.7166 28 27.9999 28ZM27.9999 45.15C32.7444 40.7944 36.2638 36.8375 38.5583 33.2792C40.8527 29.7208 41.9999 26.5611 41.9999 23.8C41.9999 19.5611 40.6485 16.0903 37.9458 13.3875C35.243 10.6847 31.9277 9.33334 27.9999 9.33334C24.0721 9.33334 20.7569 10.6847 18.0541 13.3875C15.3513 16.0903 13.9999 19.5611 13.9999 23.8C13.9999 26.5611 15.1471 29.7208 17.4416 33.2792C19.736 36.8375 23.2555 40.7944 27.9999 45.15ZM27.9999 51.3333C21.7388 46.0056 17.0624 41.0569 13.9708 36.4875C10.8791 31.9181 9.33325 27.6889 9.33325 23.8C9.33325 17.9667 11.2096 13.3194 14.9624 9.85834C18.7152 6.39723 23.061 4.66667 27.9999 4.66667C32.9388 4.66667 37.2846 6.39723 41.0374 9.85834C44.7902 13.3194 46.6666 17.9667 46.6666 23.8C46.6666 27.6889 45.1207 31.9181 42.0291 36.4875C38.9374 41.0569 34.261 46.0056 27.9999 51.3333Z" fill="#D05353"/>
</svg>
