<svg width="56" height="56" viewBox="0 0 56 56" fill="none" xmlns="http://www.w3.org/2000/svg">
<path d="M9.33341 49C8.05008 49 6.95147 48.543 6.03758 47.6292C5.12369 46.7153 4.66675 45.6167 4.66675 44.3333V18.6667C4.66675 17.3833 5.12369 16.2847 6.03758 15.3708C6.95147 14.4569 8.05008 14 9.33341 14H18.6667V9.33332C18.6667 8.04999 19.1237 6.95138 20.0376 6.03749C20.9515 5.1236 22.0501 4.66666 23.3334 4.66666H32.6667C33.9501 4.66666 35.0487 5.1236 35.9626 6.03749C36.8765 6.95138 37.3334 8.04999 37.3334 9.33332V14H46.6667C47.9501 14 49.0487 14.4569 49.9626 15.3708C50.8765 16.2847 51.3334 17.3833 51.3334 18.6667V28.6417C50.6334 28.1361 49.8945 27.6986 49.1167 27.3292C48.339 26.9597 47.5223 26.6389 46.6667 26.3667V18.6667H9.33341V44.3333H25.8417C25.9584 45.15 26.1334 45.9472 26.3667 46.725C26.6001 47.5028 26.8917 48.2611 27.2417 49H9.33341ZM23.3334 14H32.6667V9.33332H23.3334V14ZM42.0001 53.6667C38.7723 53.6667 36.0209 52.5292 33.7459 50.2542C31.4709 47.9792 30.3334 45.2278 30.3334 42C30.3334 38.7722 31.4709 36.0208 33.7459 33.7458C36.0209 31.4708 38.7723 30.3333 42.0001 30.3333C45.2279 30.3333 47.9792 31.4708 50.2542 33.7458C52.5292 36.0208 53.6667 38.7722 53.6667 42C53.6667 45.2278 52.5292 47.9792 50.2542 50.2542C47.9792 52.5292 45.2279 53.6667 42.0001 53.6667ZM43.1667 41.5333V35H40.8334V42.4667L45.8501 47.4833L47.4834 45.85L43.1667 41.5333Z" fill="#D05353"/>
</svg>
